<?xml version="1.0" standalone="no"?>
<!DOCTYPE svg PUBLIC "-//W3C//DTD SVG 20010904//EN"
 "http://www.w3.org/TR/2001/REC-SVG-20010904/DTD/svg10.dtd">
<svg version="1.0" xmlns="http://www.w3.org/2000/svg"
 width="223.000000pt" height="223.000000pt" viewBox="0 0 223.000000 223.000000"
 preserveAspectRatio="xMidYMid meet">
<metadata>
Created by potrace 1.11, written by Peter Selinger 2001-2013
</metadata>
<g transform="translate(0.000000,223.000000) scale(0.100000,-0.100000)"
fill="#000000" stroke="none">
<path d="M1029 1771 c-112 -23 -220 -115 -259 -218 -69 -185 -38 -466 71 -632
41 -62 114 -121 148 -121 9 0 -2 9 -25 19 -121 55 -217 277 -218 506 -1 170
55 302 158 371 60 40 171 70 213 59 15 -5 35 -8 43 -7 10 1 11 0 2 -4 -9 -4
-3 -17 18 -44 83 -105 134 -298 134 -510 1 -103 -4 -149 -18 -195 -40 -133
-64 -154 -211 -186 l-80 -17 53 -1 c45 -1 52 -4 52 -21 0 -11 -6 -22 -12 -24
-94 -26 -134 -42 -163 -67 -37 -33 -56 -81 -48 -123 4 -21 -3 -36 -36 -71 -40
-44 -61 -81 -61 -111 0 -10 14 -14 58 -14 53 0 60 3 80 30 13 16 26 30 30 30
4 0 16 -14 26 -31 10 -17 20 -28 24 -25 3 3 -13 32 -35 63 -58 84 -73 116 -69
157 4 61 72 114 169 131 33 6 37 5 37 -13 0 -26 20 -42 65 -49 29 -5 41 -1 60
17 14 13 25 32 25 42 0 14 8 18 38 18 52 0 112 -18 112 -34 0 -8 7 -19 16 -27
10 -8 14 -22 10 -39 -3 -15 0 -33 7 -41 10 -11 9 -11 -4 -1 -32 24 -134 42
-239 42 -102 -1 -233 -19 -248 -35 -4 -4 5 -5 20 -1 181 43 428 25 436 -33 2
-12 -17 -59 -42 -106 -25 -47 -46 -87 -46 -89 0 -3 18 -5 39 -4 35 0 43 5 66
40 16 24 30 36 38 32 25 -15 57 -48 57 -61 0 -9 18 -13 65 -13 55 0 65 3 65
18 -1 49 -74 152 -118 166 -13 4 -17 17 -17 54 0 89 -54 133 -190 154 -74 11
-75 12 -81 45 -6 30 -2 37 39 74 29 25 59 65 79 107 l33 67 -3 187 c-3 267
-28 378 -105 465 -17 19 -47 43 -68 54 -44 22 -136 32 -190 20z m196 -51 c3
-6 -1 -7 -9 -4 -18 7 -21 14 -7 14 6 0 13 -4 16 -10z m105 -145 c0 -5 -5 -3
-10 5 -5 8 -10 20 -10 25 0 6 5 3 10 -5 5 -8 10 -19 10 -25z m17 -67 c-3 -8
-6 -5 -6 6 -1 11 2 17 5 13 3 -3 4 -12 1 -19z m10 -60 c-3 -8 -6 -5 -6 6 -1
11 2 17 5 13 3 -3 4 -12 1 -19z m10 -80 c-2 -13 -4 -5 -4 17 -1 22 1 32 4 23
2 -10 2 -28 0 -40z m10 -235 c-2 -37 -3 -9 -3 62 0 72 1 102 3 68 2 -34 2 -93
0 -130z m-47 -173 c-6 -11 -13 -20 -16 -20 -2 0 0 9 6 20 6 11 13 20 16 20 2
0 0 -9 -6 -20z m141 -297 c13 -16 12 -17 -3 -4 -17 13 -22 21 -14 21 2 0 10
-8 17 -17z m-12 -152 c-1 -13 -2 -13 -6 2 -2 9 -9 14 -15 11 -7 -4 -8 -2 -4 5
4 6 4 18 -1 24 -4 7 0 4 10 -6 9 -11 16 -27 16 -36z m24 44 c-3 -9 -8 -14 -10
-11 -3 3 -2 9 2 15 9 16 15 13 8 -4z m-53 -99 c0 -2 -8 -10 -17 -17 -16 -13
-17 -12 -4 4 13 16 21 21 21 13z"/>
<path d="M833 1493 c-30 -6 -63 -49 -63 -84 0 -15 11 -40 24 -55 49 -58 146
-21 146 56 0 55 -50 94 -107 83z"/>
<path d="M1099 1487 c-65 -50 -41 -157 36 -157 94 0 137 80 76 141 -32 31 -82
39 -112 16z"/>
<path d="M910 1305 c-14 -8 -47 -25 -75 -37 -37 -17 -45 -24 -30 -26 30 -6 48
-23 36 -35 -7 -7 -16 -5 -28 4 -14 12 -14 9 2 -13 11 -15 26 -25 33 -23 6 2
12 0 12 -5 0 -6 -4 -10 -8 -10 -8 0 -32 -78 -32 -105 0 -8 6 -15 14 -15 7 0
16 -9 19 -20 5 -19 13 -20 139 -20 73 0 157 3 186 6 l52 7 0 71 c0 39 -3 82
-7 95 l-6 23 -184 -4 -184 -4 72 26 c40 14 74 30 76 37 3 9 -3 8 -24 -2 -55
-27 -80 -29 -86 -5 -4 16 2 26 26 41 39 23 51 24 71 3 9 -8 16 -12 16 -7 0 32
-49 42 -90 18z m-34 -60 c10 -25 -7 -40 -23 -20 -7 11 -13 22 -13 27 0 14 30
9 36 -7z m333 -167 c1 -20 -2 -39 -7 -41 -4 -3 -82 -8 -175 -12 -119 -5 -167
-4 -167 4 0 7 53 11 163 13 l162 3 4 75 c3 69 4 72 12 35 4 -22 8 -57 8 -77z
m-44 70 c-5 -25 -4 -29 4 -18 8 11 11 5 11 -27 0 -47 -19 -61 -21 -15 l-1 27
-10 -27 c-8 -24 -15 -28 -48 -28 l-38 0 14 47 c17 57 20 60 59 66 17 2 31 5
33 6 2 0 1 -14 -3 -31z m-157 14 c-2 -4 -12 -31 -22 -60 -18 -46 -23 -52 -49
-52 -31 0 -32 8 -13 75 4 11 0 7 -8 -10 -8 -16 -15 -38 -16 -47 0 -13 -8 -18
-29 -18 -17 0 -32 3 -34 8 -3 4 4 30 14 59 l20 52 70 0 c39 0 69 -3 67 -7z
m53 -52 c-14 -44 -19 -50 -43 -50 -32 0 -34 6 -12 60 13 33 21 40 43 40 l28 0
-16 -50z"/>
<path d="M1155 580 c-3 -5 -1 -10 4 -10 6 0 11 5 11 10 0 6 -2 10 -4 10 -3 0
-8 -4 -11 -10z"/>
<path d="M1250 580 c0 -5 5 -10 11 -10 5 0 7 5 4 10 -3 6 -8 10 -11 10 -2 0
-4 -4 -4 -10z"/>
<path d="M1075 570 c3 -5 8 -10 11 -10 2 0 4 5 4 10 0 6 -5 10 -11 10 -5 0 -7
-4 -4 -10z"/>
<path d="M990 560 c0 -5 5 -10 10 -10 6 0 10 5 10 10 0 6 -4 10 -10 10 -5 0
-10 -4 -10 -10z"/>
</g>
</svg>
